<?xml version="1.0" encoding="utf-8"?>
<!-- Generator: Adobe Illustrator 23.0.1, SVG Export Plug-In . SVG Version: 6.00 Build 0)  -->
<svg version="1.1" id="Layer_1" xmlns="http://www.w3.org/2000/svg" xmlns:xlink="http://www.w3.org/1999/xlink" x="0px" y="0px"
	 viewBox="0 0 50.1 49" style="enable-background:new 0 0 50.1 49;" xml:space="preserve">
<g>
	<g>
		<g>
			<path d="M49,48.1H22V19.6l13.5-9.7L49,19.6V48.1z M24,46.1h23V20.7l-11.5-8.3L24,20.7V46.1z"/>
		</g>
	</g>
	<g>
		<g>
			<polygon points="35,48.1 1,48.1 1,19.8 18,0.7 30.9,14.3 29.4,15.7 18,3.6 3,20.6 3,46.1 35,46.1 			"/>
		</g>
	</g>
	<g>
		<g>
			<path d="M19,48.1H6v-19h13V48.1z M8,46.1h9v-15H8V46.1z"/>
		</g>
	</g>
	<g>
		<g>
			<path d="M45,48.1h-9V34.6c0-2.5,2-4.5,4.5-4.5s4.5,2,4.5,4.5V48.1z M38,46.1h5V34.6c0-1.4-1.1-2.5-2.5-2.5S38,33.3,38,34.6V46.1z
				"/>
		</g>
	</g>
	<g>
		<g>
			<path d="M18,17.1c-2.2,0-4-1.8-4-4s1.8-4,4-4s4,1.8,4,4S20.2,17.1,18,17.1z M18,11.1c-1.1,0-2,0.9-2,2s0.9,2,2,2s2-0.9,2-2
				S19.1,11.1,18,11.1z"/>
		</g>
	</g>
	<g>
		<g>
			<path d="M36,24.1c-2.2,0-4-1.8-4-4s1.8-4,4-4s4,1.8,4,4S38.2,24.1,36,24.1z M36,18.1c-1.1,0-2,0.9-2,2s0.9,2,2,2s2-0.9,2-2
				S37.1,18.1,36,18.1z"/>
		</g>
	</g>
</g>
</svg>
