<?xml version="1.0" encoding="utf-8"?>
<!-- Generator: Adobe Illustrator 23.0.1, SVG Export Plug-In . SVG Version: 6.00 Build 0)  -->
<svg version="1.1" id="Layer_1" xmlns="http://www.w3.org/2000/svg" xmlns:xlink="http://www.w3.org/1999/xlink" x="0px" y="0px"
	 viewBox="0 0 309.9 399.4" style="enable-background:new 0 0 309.9 399.4;" xml:space="preserve">
<style type="text/css">
	.st0{fill:#02AEB4;}
</style>
<g>
	<path class="st0" d="M155,2c85,0,154,69,154,153c0,88-90,191-154,243C92,346,2,243,2,155C2,71,71,2,155,2z M155,19
		C86,19,19,86,19,155c0,71,86,174,136,218c51-44,137-147,137-218C292,86,225,19,155,19z"/>
</g>
<path class="st0" d="M155.5,63.9c-52.5,0-95,42.5-95,95s42.5,95,95,95s95-42.5,95-95S208,63.9,155.5,63.9z M155.5,234.9
	c-42,0-76-34-76-76s34-76,76-76s76,34,76,76S197.5,234.9,155.5,234.9z"/>
<path class="st0" d="M155.5,101.9c-31.5,0-57,25.5-57,57s25.5,57,57,57s57-25.5,57-57S187,101.9,155.5,101.9z M155.5,196.9
	c-21,0-38-17-38-38s17-38,38-38s38,17,38,38S176.5,196.9,155.5,196.9z"/>
</svg>
