<?xml version="1.0" encoding="utf-8"?>
<!-- Generator: Adobe Illustrator 23.0.1, SVG Export Plug-In . SVG Version: 6.00 Build 0)  -->
<svg version="1.1" id="Layer_1" xmlns="http://www.w3.org/2000/svg" xmlns:xlink="http://www.w3.org/1999/xlink" x="0px" y="0px"
	 viewBox="0 0 135.6 175" style="enable-background:new 0 0 135.6 175;" xml:space="preserve">
<style type="text/css">
	.st0{fill:#FFFFFF;}
	.st1{fill:#F7941D;}
</style>
<polygon class="st0" points="58.2,6.3 25.3,22.1 9.7,47.7 5,73.2 14.7,105.4 31.1,126.7 61,162.9 67,167.7 103.5,127.9 125.6,85.8 
	130,59.5 123.4,46.5 112.5,26.1 97.5,15.2 73.2,6.3 61,6.3 "/>
<g>
	<path class="st1" d="M67.7,2c36.5,0,66.1,29.6,66.1,65.7c0,37.8-38.6,82-66.1,104.3C40.6,149.6,2,105.4,2,67.7
		C2,31.6,31.6,2,67.7,2z M67.7,9.3C38,9.3,9.3,38,9.3,67.7c0,30.5,36.9,74.7,58.4,93.5c21.9-18.9,58.8-63.1,58.8-93.5
		C126.4,38,97.7,9.3,67.7,9.3z"/>
</g>
<g>
	<path class="st1" d="M103.1,80h-1.5c-0.6-8-4.2-15.4-10.1-21.2c-5.9-5.7-13.6-9.1-21.9-9.7v-1.3c3.9-1.2,6.9-5,6.9-9.4
		c0-5.4-4.3-9.8-9.6-9.8s-9.6,4.4-9.6,9.8c0,4.5,2.9,8.2,6.9,9.4v1.3c-8.3,0.6-16,4-21.9,9.7C36.5,64.6,32.9,72,32.3,80h-1.5
		c-1.5,0-2.7,1.2-2.7,2.7v12.1c0,1.5,1.2,2.6,2.7,2.6h72.3c1.5,0,2.7-1.1,2.7-2.6V82.7C105.9,81.2,104.6,80,103.1,80z M62.8,38.4
		c0-2.4,1.9-4.5,4.2-4.5s4.2,2,4.2,4.5c0,2.4-1.9,4.5-4.2,4.5C64.7,42.9,62.8,40.9,62.8,38.4z M67,54.4c15.3,0,27.9,11.3,29.3,25.6
		H37.7C39.1,65.7,51.7,54.4,67,54.4z M100.5,92H33.5v-6.6h67.1V92z"/>
</g>
</svg>
