<?xml version="1.0" encoding="utf-8"?>
<!-- Generator: Adobe Illustrator 23.0.1, SVG Export Plug-In . SVG Version: 6.00 Build 0)  -->
<svg version="1.1" id="Layer_1" xmlns="http://www.w3.org/2000/svg" xmlns:xlink="http://www.w3.org/1999/xlink" x="0px" y="0px"
	 viewBox="0 0 309.9 399.4" style="enable-background:new 0 0 309.9 399.4;" xml:space="preserve">
<style type="text/css">
	.st0{fill:#F7941D;}
</style>
<g>
	<path class="st0" d="M155,2c85,0,154,69,154,153c0,88-90,191-154,243C92,346,2,243,2,155C2,71,71,2,155,2z M155,19
		C86,19,19,86,19,155c0,71,86,174,136,218c51-44,137-147,137-218C292,86,225,19,155,19z"/>
</g>
<g>
	<path class="st0" d="M237.7,183.8h-3.4c-1.5-18.7-9.7-36-23.6-49.4c-13.8-13.3-31.8-21.2-51-22.6v-3c9.2-2.8,16-11.6,16-21.9
		c0-12.6-10-22.9-22.3-22.9s-22.3,10.3-22.3,22.9c0,10.4,6.8,19.1,16,21.9v3c-19.3,1.4-37.2,9.3-51,22.6
		c-13.8,13.4-22.1,30.7-23.6,49.4h-3.4c-3.4,0-6.3,2.8-6.3,6.2v28.1c0,3.4,2.9,6.1,6.3,6.1h168.6c3.4,0,6.3-2.6,6.3-6.1V190
		C244.1,186.6,241.2,183.8,237.7,183.8z M143.7,86.9c0-5.7,4.4-10.4,9.8-10.4c5.4,0,9.8,4.7,9.8,10.4c0,5.7-4.4,10.4-9.8,10.4
		C148.1,97.3,143.7,92.6,143.7,86.9z M153.5,124.1c35.7,0,65.1,26.3,68.3,59.7H85.2C88.4,150.4,117.8,124.1,153.5,124.1z
		 M231.6,211.7H75.3v-15.4h156.3V211.7z"/>
</g>
</svg>
