<?xml version="1.0" encoding="utf-8"?>
<!-- Generator: Adobe Illustrator 23.0.1, SVG Export Plug-In . SVG Version: 6.00 Build 0)  -->
<svg version="1.1" id="Layer_1" xmlns="http://www.w3.org/2000/svg" xmlns:xlink="http://www.w3.org/1999/xlink" x="0px" y="0px"
	 viewBox="0 0 309.9 399.4" style="enable-background:new 0 0 309.9 399.4;" xml:space="preserve">
<style type="text/css">
	.st0{fill:#5873DF;}
</style>
<g>
	<path class="st0" d="M154,2c85,0,154,69,154,153c0,88-90,191-154,243C91,346,1,243,1,155C1,71,70,2,154,2z M154,19
		C85,19,18,86,18,155c0,71,86,174,136,218c51-44,137-147,137-218C291,86,224,19,154,19z"/>
</g>
<g>
	<path class="st0" d="M98.7,194.8c6.8,0,13.1,2.3,18.8,5.7v-84.2c0-2.3,1.1-4.5,3.4-5.1L217.1,69c4-1.7,8,1.1,8,5.1v126.4
		c0,15.9-14.8,26.7-29.6,26.7c-15.3,0-30.2-10.8-30.2-26.7s14.8-26.7,30.2-26.7c6.3,0,13.1,2.3,18.2,5.7c0-91.1,0-23.9,0-96.7
		l-84.9,37.5c0,23.9,0,53.5,0,101.3c0,15.9-14.8,26.7-30.2,26.7c-14.8,0-29.6-10.8-29.6-26.7C69.2,205.6,84,194.8,98.7,194.8z
		 M213.7,200.5c0-9.7-9.7-15.3-18.2-15.3c-9.1,0-18.8,5.7-18.8,15.3c0,9.7,9.7,15.3,18.8,15.3C204,215.8,213.7,210.2,213.7,200.5z
		 M98.7,206.1c-8.6,0-18.2,5.7-18.2,15.3c0,9.7,9.7,15.3,18.2,15.3c9.1,0,18.8-5.7,18.8-15.3C117.6,211.9,107.9,206.1,98.7,206.1z"
		/>
</g>
</svg>
