<?xml version="1.0" encoding="utf-8"?>
<!-- Generator: Adobe Illustrator 23.0.1, SVG Export Plug-In . SVG Version: 6.00 Build 0)  -->
<svg version="1.1" xmlns="http://www.w3.org/2000/svg" xmlns:xlink="http://www.w3.org/1999/xlink" x="0px" y="0px"
	 viewBox="0 0 309.9 399.4" style="enable-background:new 0 0 309.9 399.4;" xml:space="preserve">
<style type="text/css">
	.st0{fill:#FFFFFF;}
	.st1{fill:#4C6684;}
</style>
<g id="Layer_2">
	<polygon class="st0" points="133.9,10.1 57.3,46.9 21,106.4 9.9,165.9 32.5,240.9 70.9,290.7 140.4,375 154.5,386.1 239.6,293.5 
		291,195.3 301.2,134 286,103.6 260.6,56.1 225.6,30.8 168.9,10.1 140.4,10.1 	"/>
</g>
<g id="Layer_1">
	<g>
		<path class="st1" d="M154,1c85,0,154,69,154,153c0,88-90,191-154,243C91,345,1,242,1,154C1,70,70,1,154,1z M154,18
			C85,18,18,85,18,154c0,71,86,174,136,218c51-44,137-147,137-218C291,85,224,18,154,18z"/>
	</g>
	<path class="st1" d="M261.2,138.3H251v-12.6c0-9.4-7.7-17.1-17.1-17.1c-2,0-4,0.5-5.7,1c-0.2-11.7-9.9-21.1-21.6-21.1
		c-11.9,0-21.6,9.7-21.6,21.6v27.8h-59.3v-27.3c0-11.9-9.7-21.6-21.6-21.6c-11.7,0-21.3,9.4-21.6,21.1c-1.7-0.7-3.7-1-5.7-1
		c-9.4,0-17.1,7.7-17.1,17.1v12.6H49.3c-3.2,0-5.7,2.5-5.7,5.7v27.3c0,3.2,2.5,5.7,5.7,5.7h10.2v12.6c0,9.4,7.7,17.1,17.1,17.1
		c2,0,4-0.5,5.7-1c0.2,11.7,9.9,21.1,21.6,21.1c11.9,0,21.6-9.7,21.6-21.6V177h59.3v28c0,11.9,9.7,21.6,21.6,21.6
		c11.7,0,21.3-9.4,21.6-21.1c1.7,0.7,3.7,1,5.7,1c9.4,0,17.1-7.7,17.1-17.1v-12.6H261c3.2,0,5.7-2.5,5.7-5.7v-27.3
		C266.9,141.1,264.4,138.3,261.2,138.3z M239.6,177v12.6c0,3.2-2.5,5.7-5.7,5.7s-5.7-2.5-5.7-5.7V177v-11.4v-15.9v-11.4v-12.6
		c0-3.2,2.5-5.7,5.7-5.7s5.7,2.5,5.7,5.7v12.6v11.4v15.9V177z M216.8,189.7v15.4c0,5.7-4.7,10.2-10.2,10.2
		c-5.7,0-10.2-4.7-10.2-10.2v-28v-11.4v-15.9v-11.4v-27.8c0-5.7,4.7-10.2,10.2-10.2c5.7,0,10.2,4.7,10.2,10.2V126v12.6V150v15.9
		v11.4V189.7z M114.3,177v28c0,5.7-4.7,10.2-10.2,10.2S94,210.5,94,205.1v-15.4V177v-11.4v-15.9v-11.4v-12.6v-15.1
		c0-5.7,4.7-10.2,10.2-10.2s10.2,4.7,10.2,10.2v27.8v11.4v15.9L114.3,177L114.3,177z M70.9,189.7V177v-11.4v-15.9v-11.4v-12.6
		c0-3.2,2.5-5.7,5.7-5.7s5.7,2.5,5.7,5.7v12.6v11.4v15.9V177v12.6c0,3.2-2.5,5.7-5.7,5.7C73.6,195.4,70.9,192.9,70.9,189.7z
		 M55,165.9V150h4.5v15.9H55z M125.7,165.9V150H185v15.9H125.7z M255.5,165.9H251V150h4.5V165.9z"/>
	<path class="st0" d="M140.4,10.1"/>
</g>
</svg>
