<?xml version="1.0" encoding="utf-8"?>
<!-- Generator: Adobe Illustrator 23.0.1, SVG Export Plug-In . SVG Version: 6.00 Build 0)  -->
<svg version="1.1" id="Layer_1" xmlns="http://www.w3.org/2000/svg" xmlns:xlink="http://www.w3.org/1999/xlink" x="0px" y="0px"
	 viewBox="0 0 309.9 399.4" style="enable-background:new 0 0 309.9 399.4;" xml:space="preserve">
<style type="text/css">
	.st0{fill:#FFFFFF;}
	.st1{fill:#F26C4F;}
	.st2{fill-rule:evenodd;clip-rule:evenodd;fill:#F26C4F;}
</style>
<polygon class="st0" points="132.9,12.1 56.3,48.9 20,108.4 8.9,167.9 31.5,242.9 69.9,292.7 139.4,377 153.5,388.1 238.6,295.5 
	290,197.3 300.2,136 285,105.6 259.6,58.1 224.6,32.8 167.9,12.1 139.4,12.1 "/>
<g>
	<path class="st1" d="M155,2c85,0,154,69,154,153c0,88-90,191-154,243C92,346,2,243,2,155C2,71,71,2,155,2z M155,19
		C86,19,19,86,19,155c0,71,86,174,136,218c51-44,137-147,137-218C292,86,225,19,155,19z"/>
</g>
<g>
	<path class="st2" d="M59.8,155.9c0-22.2,5.6-43.2,19.6-60.3l4-4.7c2.9-2.7,4.4-4.4,7.4-6.9c2.9-2,5.6-4,8.4-5.7
		c18.5-11.4,34.6-13.6,55.4-13.6c12.1,0,26.5,4.5,37.7,8.7c5,2.4,10.1,4.9,14.7,8.1c7.1,4.9,10,7.5,15.8,13.1
		c2.2,2.4,3.3,3.8,5.3,6.2c0.5,0.7,0.7,1.1,1.1,1.7c0.4,0.7,0.9,1,1.4,1.6c3.1,4.9,5.7,9.6,8,15.2c4,9.4,6.7,22.9,6.4,33.8
		c0,1.8,0.3,3.4,0.3,5.4c0,6-0.4,12.8-1.6,18.7c-2,11.6-8,26.5-19.8,31.4c-8.9,3.8-18,1.8-23-5.6c-4.2-6-10.4-14.1-13.8-19.6
		c-0.9-1.3-1.3-2.3-2.3-3.3c-5.1-6.7-14-13.9-22.5-9.6c-4.3,2-7.8,6.5-7.8,11.8c0,7.1,1.6,11.2,5.4,16.5c2.4,3.6,6.2,6.9,9.1,10.1
		c0.4,0.4,0.7,0.6,1.1,1.1c0.7,0.4,0.7,0.6,1.1,1.3c2.7,2.9,4,4.4,6.4,8c9.2,13.6,7.4,23.2-9.5,26.3c-10.5,2-21.9,0-31.4-2
		c-4.9-1.1-13.1-4-17.6-5.8c-7.5-3.3-16-7.7-22.5-12.7c-1.1-0.9-2.3-1.6-3.3-2.4c-1.1-0.9-2.1-2-3.1-2.9c-2.3-1.7-4.1-3.6-6.1-5.6
		c-0.6-0.4-0.9-0.9-1.6-1.3l-6.7-8.1c-4.9-7.3-7.1-10.7-10.4-18.9C62.2,177.4,59.8,165.7,59.8,155.9L59.8,155.9z M50.9,150.6
		c0-3.6,0.4-7.8,1-11.2c0.6-3.3,1-6.9,1.7-10.2c1.6-6.4,3.4-12.2,5.8-18l2.9-6.2c1.8-3.1,3.8-6.2,5.8-9.2c0.7-1.3,1.6-2.4,2.4-3.6
		l2.7-3.3c0.9-1.1,1.8-2.3,2.9-3.1c0.5-0.7,0.7-1.1,1.4-1.6l4.4-4.4c0.4-0.5,0.4-0.3,0.9-0.7c7.4-5.8,8.2-6.9,16.9-11.6l8.1-3.7
		c2.9-1.1,5.8-2.3,8.9-3.1c12.7-4,20.9-5.1,35.1-5.1c14.2,0,34.1,4.4,46.5,10.7c4.3,2.3,8.1,4,12.3,6.7c4,2.7,10.4,7.4,14.2,10.9
		c0.7,0.6,0.9,0.9,1.7,1.6c0.5,0.4,1,1.1,1.6,1.6c7.6,8,14.7,18.2,18.7,28.5c0.4,1,0.7,1.6,0.9,2.3c0.4,0.9,0.7,1.6,1,2.4l2.2,7.4
		c2.3,8.4,3.4,18.9,3.4,27.8v6.2c0,14.7-3.4,30.5-11.4,42.1c-3.8,5.7-9.6,10.8-16.1,13.4c-6.9,2.9-14.7,3.3-21.9,0.4
		c-9.1-3.8-11.1-9.4-16.2-16.3l-4.7-6.2c-2.7-3.8-6.7-10.3-8.8-12.8c-2.3-2.2-4.5-4-7.8-4c-5.4,0-4.9,9.8,1.6,17.2
		c0.2,0.4,0.6,0.6,1.1,1.1l2.9,3.3c1.1,0.7,1.1,1.1,2.3,2c3.3,3.6,6.7,7.4,9.5,11.4c1.1,1.8,2.3,3.6,3.1,5.1l2.7,5.8
		c3.6,8.4,2,18.2-5.8,24c-12.7,9.5-34.3,8-49.2,4.4c-19.6-4.9-36.4-13.5-51.7-26.5c-3.1-2.4-9.5-9.1-11.8-12.1
		c-4-5.1-6-7.5-9.1-13.1c-3.6-5.8-6.7-13.4-8.5-20c-0.9-3.4-1.7-6.7-2.4-10.2c-0.7-4.9-0.9-8.2-1.1-12.1L50.9,150.6L50.9,150.6z"/>
	<path class="st2" d="M113.5,141.7c-6.7,0-12.3-3.8-15.2-9.1c-2.3-4.7-2.3-10.7,0-15.2c7.8-15.8,31.8-10.4,31.8,7.6
		c0,6.9-4.4,13.1-9.8,15.1C118.1,141,115.9,141.7,113.5,141.7L113.5,141.7z M98.1,145.7c10.8,7.8,24.6,6.7,33.9-2.9
		c12-11.8,9.3-33-7.2-41.2c-4.4-2.3-7.3-2.7-12.7-2.7c-5.1,0-10,2.3-13.8,4.9l-3.1,2.9c-4.9,4.9-7.8,10.7-7.8,18
		c0,0,0.4,6.8,2.7,11.5C92.6,141.6,97,144.9,98.1,145.7z"/>
	<path class="st2" d="M175.8,133.7c-4.9,0-10-2.9-12-7.1c-2-4.7-1.8-9.8,1-14.1c1.6-1.8,3.4-3.4,5.6-4.3c3.3-1.6,7.1-1.6,10.4,0
		c3.1,1.1,5.4,3.6,6.9,6.5C192.1,123.5,185.2,133.7,175.8,133.7L175.8,133.7z M159.6,135.9c3.6,3.8,9.5,6.7,14.9,6.7
		c4.9,0,6.4,0,11.1-2c3.1-1.3,5.6-3.7,7.5-6c2.1-2.4,3.6-6,4.5-9.1c1.1-4.9,0.4-9.4-1.4-13.8c-0.4-1.4-1-2.5-1.7-3.6
		c-0.4-0.5-0.9-1-1.1-1.6l-1.3-1.6c-3.4-3.6-9.8-6.9-15.2-6.9c-4.3,0-6.9,0.4-10.9,2.3C152.6,107,149.3,125,159.6,135.9z"/>
	<path class="st2" d="M114.8,203.2c-3.1,0-6-1.4-7.5-2.9c-4.7-4.9-4.7-11.4,0-16.1c0.6-0.9,2-1.7,3.1-2.2c11.8-4.7,20.5,9.5,12.2,18
		C120.6,201.8,117.7,203.2,114.8,203.2L114.8,203.2z M103,208.3c6.7,5.1,16.7,5.1,23.6,0c7.5-5.6,10.2-14.9,6.7-24.3
		c-1.3-3.1-3.8-6.1-6.7-8.1c-8-6-19.6-4.9-26.3,2c-3.3,3.6-5.8,8.9-5.8,14.1c0,0-0.1,4.7,1.8,8.9C97.7,204.1,100.9,206.7,103,208.3z
		"/>
	<path class="st2" d="M218.1,175.5c-2.9,0-6-1.7-7.4-4.4c-1.7-3.4-1.3-7.1,1.6-10.1c4.9-4.6,14.1-2,14.1,6.5
		C226.4,172,222.4,175.5,218.1,175.5L218.1,175.5z M210.2,182.6c5.7,3.1,12.8,2.3,18.2-1.3l2.3-2c5.6-6,6.7-14.7,2-21.6
		c-1-1.6-1.6-2.4-2.9-3.4c-1.6-1.3-0.9-1.3-3.7-2.6c-8.1-4.1-17.4-1.6-22.3,5.7c-1.7,2.7-3.1,6.1-3.1,9.6
		C200.5,173.6,204.3,179.7,210.2,182.6z"/>
</g>
</svg>
