<?xml version="1.0" encoding="utf-8"?>
<!-- Generator: Adobe Illustrator 23.0.1, SVG Export Plug-In . SVG Version: 6.00 Build 0)  -->
<svg version="1.1"
	 id="Layer_1" xmlns:cc="http://creativecommons.org/ns#" xmlns:dc="http://purl.org/dc/elements/1.1/" xmlns:inkscape="http://www.inkscape.org/namespaces/inkscape" xmlns:rdf="http://www.w3.org/1999/02/22-rdf-syntax-ns#" xmlns:sodipodi="http://sodipodi.sourceforge.net/DTD/sodipodi-0.dtd" xmlns:svg="http://www.w3.org/2000/svg"
	 xmlns="http://www.w3.org/2000/svg" xmlns:xlink="http://www.w3.org/1999/xlink" x="0px" y="0px" viewBox="0 0 61.2 75.1"
	 style="enable-background:new 0 0 61.2 75.1;" xml:space="preserve">
<style type="text/css">
	.st0{fill:#FFFFFF;}
</style>
<g transform="translate(0,-952.36218)">
	<path d="M31,954.6c-16,0-29,12-29,26.7c0,5.2,1.4,9,4.3,13l23,31.3c0.6,0.8,1.9,1.1,2.8,0.5c0.2-0.1,0.4-0.3,0.5-0.5l23-31.3
		c2.9-4,4.3-7.8,4.3-13C60,966.6,47,954.6,31,954.6z M52.3,992.2L31,1021.3L9.7,992.2C7,988.6,6,986,6,981.3c0-12.7,11.2-23,25-23
		s25,10.3,25,23C56,986,55,988.6,52.3,992.2z"/>
</g>
<circle cx="31" cy="30.2" r="14"/>
<circle class="st0" cx="31" cy="30.2" r="10"/>
</svg>
