<?xml version="1.0" encoding="utf-8"?>
<!-- Generator: Adobe Illustrator 23.0.1, SVG Export Plug-In . SVG Version: 6.00 Build 0)  -->
<svg version="1.1" id="Layer_1" xmlns="http://www.w3.org/2000/svg" xmlns:xlink="http://www.w3.org/1999/xlink" x="0px" y="0px"
	 viewBox="0 0 16.8 17" style="enable-background:new 0 0 16.8 17;" xml:space="preserve">
<style type="text/css">
	.st0{fill:#9717E0;}
</style>
<path class="st0" d="M16.1,1.5c-0.4-0.6-1.3-0.9-2-0.6L1.5,5.8C0.7,6,0.3,6.7,0.4,7.5S1,8.9,1.8,9l4.9,0.8c0.3,0.1,0.6,0.3,0.6,0.6
	l0.8,4.9c0.2,0.8,0.9,1.4,1.7,1.4c0.7,0,1.3-0.4,1.6-1L16.3,3C16.5,2.5,16.4,2,16.1,1.5z M7.5,9C7.3,8.9,7.1,8.8,6.9,8.8L2,8
	C1.6,7.9,1.4,7.6,1.4,7.4c-0.1-0.2,0-0.6,0.4-0.7l12.6-5c0.1,0,0.2,0,0.3,0L7.5,9z M15.3,2.6l-4.9,12.7c-0.1,0.4-0.5,0.4-0.6,0.4
	c-0.3,0-0.6-0.2-0.7-0.6l-0.8-4.9c0-0.2-0.1-0.3-0.1-0.5l7.2-7.2C15.3,2.5,15.3,2.6,15.3,2.6z"/>
</svg>
