<?xml version="1.0" encoding="utf-8"?>
<!-- Generator: Adobe Illustrator 23.0.1, SVG Export Plug-In . SVG Version: 6.00 Build 0)  -->
<svg version="1.1" id="Layer_1" xmlns="http://www.w3.org/2000/svg" xmlns:xlink="http://www.w3.org/1999/xlink" x="0px" y="0px"
	 viewBox="0 0 2411 2431.5" style="enable-background:new 0 0 2411 2431.5;" xml:space="preserve">
<style type="text/css">
	.st0{fill-rule:evenodd;clip-rule:evenodd;fill:#9717E0;}
</style>
<g>
	<path class="st0" d="M141.8,1215.9c0-256,64-498,226-695l46-54c33-31,51-51,85-80c33-23,64-46,97-66c213-131,399-157,639-157
		c139,0,305,52,434,100c58,28,116,57,170,93c82,56,115,87,182,151c25,28,38,44,61,72c6,8,8,13,13,20c5,8,10,11,16,18
		c36,57,66,111,92,175c46,108,77,264,74,390c0,21,3,39,3,62c0,69-5,148-18,215c-23,134-92,306-228,362c-103,44-208,21-265-64
		c-48-69-120-162-159-226c-10-15-15-26-26-38c-59-77-161-160-259-111c-49,23-90,75-90,136c0,82,18,129,62,190c28,41,72,80,105,116
		c5,5,8,7,13,13c8,5,8,7,13,15c31,33,46,51,74,92c106,157,85,267-110,303c-121,23-252,0-362-23c-56-13-151-46-203-67
		c-87-38-184-89-259-146c-13-10-26-18-38-28c-13-10-24-23-36-34c-26-20-47-41-70-64c-7-5-10-10-18-15l-77-93c-56-84-82-123-120-218
		C169.8,1462.9,141.8,1328.9,141.8,1215.9L141.8,1215.9z M38.8,1154.9c0-41,5-90,11-129c7-38,12-79,20-118c18-74,39-141,67-208
		l33-71c21-36,44-72,67-106c8-15,18-28,28-41l31-38c10-13,21-26,33-36c6-8,8-13,16-18l51-51c5-6,5-3,10-8c85-67,95-80,195-134l93-43
		c33-13,67-26,103-36c146-46,241-59,405-59s393,51,536,123c49,26,93,46,142,77c46,31,120,85,164,126c8,7,10,10,20,18
		c6,5,11,13,18,18c88,92,170,210,216,328c5,11,8,18,10,26c5,10,8,18,11,28l25,85c26,97,39,218,39,321v72c0,169-39,351-131,485
		c-44,66-111,125-185,154c-80,33-169,38-252,5c-105-44-128-108-187-188l-54-71c-31-44-77-119-102-147c-26-25-52-46-90-46
		c-62,0-57,113,18,198c2,5,7,7,13,13l33,38c13,8,13,13,26,23c38,41,77,85,110,131c13,21,26,41,36,59l31,67c41,97,23,210-67,277
		c-146,110-395,92-567,51c-226-56-419-156-596-305c-36-28-110-105-136-139c-46-59-69-87-105-151c-41-67-77-154-98-231
		c-10-39-20-77-28-118c-8-57-10-95-13-139V1154.9z"/>
	<path class="st0" d="M760.8,1051.9c-77,0-142-44-175-105c-26-54-26-123,0-175c90-182,367-120,367,88c0,79-51,151-113,174
		C813.8,1043.9,788.8,1051.9,760.8,1051.9L760.8,1051.9z M582.8,1097.9c124,90,283,77,391-33c138-136,107-380-83-475
		c-51-26-84-31-146-31c-59,0-115,26-159,57l-36,33c-56,57-90,123-90,208c0,0,5,78,31,133C519.8,1050.9,570.8,1088.9,582.8,1097.9z"
		/>
	<path class="st0" d="M1478.8,959.9c-56,0-115-34-138-82c-23-54-21-113,12-162c18-21,39-39,65-49c38-18,82-18,120,0
		c36,13,62,41,80,75C1666.8,841.9,1586.8,959.9,1478.8,959.9L1478.8,959.9z M1291.8,984.9c41,44,110,77,172,77c56,0,74,0,128-23
		c36-15,64-43,87-69c24-28,42-69,52-105c13-57,5-108-16-159c-5-16-12-29-20-41c-5-6-10-11-13-18l-15-18c-39-41-113-80-175-80
		c-49,0-79,5-126,26C1211.8,651.9,1173.8,859.9,1291.8,984.9z"/>
	<path class="st0" d="M775.8,1760.9c-36,0-69-16-87-34c-54-56-54-131,0-185c7-10,23-20,36-25c136-54,236,110,141,208
		C842.8,1744.9,808.8,1760.9,775.8,1760.9L775.8,1760.9z M639.8,1819.9c77,59,192,59,272,0c87-65,118-172,77-280c-15-36-44-70-77-93
		c-92-69-226-56-303,23c-38,42-67,103-67,162c0,0-1,54,21,103C578.8,1770.9,614.8,1800.9,639.8,1819.9z"/>
	<path class="st0" d="M1966.8,1441.9c-33,0-69-20-85-51c-20-39-15-82,18-116c57-53,162-23,162,75
		C2061.8,1400.9,2015.8,1441.9,1966.8,1441.9L1966.8,1441.9z M1874.8,1523.9c66,36,148,26,210-15l26-23c64-69,77-170,23-249
		c-11-18-18-28-34-39c-18-15-10-15-43-30c-93-47-200-18-257,66c-20,31-36,70-36,111C1763.8,1419.9,1806.8,1489.9,1874.8,1523.9z"/>
</g>
</svg>
