<?xml version="1.0" encoding="utf-8"?>
<!-- Generator: Adobe Illustrator 23.0.1, SVG Export Plug-In . SVG Version: 6.00 Build 0)  -->
<svg version="1.1"
	 id="Layer_1" xmlns:cc="http://creativecommons.org/ns#" xmlns:dc="http://purl.org/dc/elements/1.1/" xmlns:inkscape="http://www.inkscape.org/namespaces/inkscape" xmlns:rdf="http://www.w3.org/1999/02/22-rdf-syntax-ns#" xmlns:sodipodi="http://sodipodi.sourceforge.net/DTD/sodipodi-0.dtd" xmlns:svg="http://www.w3.org/2000/svg"
	 xmlns="http://www.w3.org/2000/svg" xmlns:xlink="http://www.w3.org/1999/xlink" x="0px" y="0px" viewBox="0 0 69.7 72.6"
	 style="enable-background:new 0 0 69.7 72.6;" xml:space="preserve">
<g transform="translate(0,-952.36218)">
	<path d="M33.6,953.7l-31,24c-0.5,0.4-0.8,1-0.8,1.6v42c0,1,1,2,2,2h21c1,0,2-1,2-2v-16c0-4.5,3.5-8,8-8s8,3.5,8,8v16c0,1,1,2,2,2
		h21c1,0,2-1,2-2v-42c0-0.6-0.3-1.2-0.8-1.6l-31-24C35.3,953.1,34.3,953.2,33.6,953.7L33.6,953.7z M34.8,957.8l29,22.5v39h-17v-14
		c0-6.6-5.4-12-12-12s-12,5.4-12,12v14h-17v-39L34.8,957.8z"/>
</g>
</svg>
