<?xml version="1.0" encoding="utf-8"?>
<!-- Generator: Adobe Illustrator 23.0.1, SVG Export Plug-In . SVG Version: 6.00 Build 0)  -->
<svg version="1.1" id="Layer_1" xmlns="http://www.w3.org/2000/svg" xmlns:xlink="http://www.w3.org/1999/xlink" x="0px" y="0px"
	 viewBox="0 0 79.3 78.5" style="enable-background:new 0 0 79.3 78.5;" xml:space="preserve">
<g>
	<path d="M58.2,42.4c0-3.9-3.2-7-7-7c-3.9,0-7,3.1-7,7s3.1,7,7,7S58.2,46.4,58.2,42.4z M48.2,42.4c0-1.7,1.3-3,3-3c1.7,0,3,1.3,3,3
		c0,1.6-1.4,3-3,3S48.2,44,48.2,42.4z"/>
	<path d="M76.2,25.4H27v4h47.1v40.1L61.7,53.2c-0.4-0.5-1-0.8-1.6-0.8s-1.2,0.3-1.6,0.8l-8.4,11.1L31.7,40.2c-0.4-0.5-1-0.8-1.6-0.8
		s-1.2,0.3-1.6,0.8L6.2,69.5V29.4h4.5v-4H4.2c-1.1,0-2,0.9-2,2v48c0,0.1,0,0.2,0,0.3c0,0,0,0,0,0.1c0,0.2,0.1,0.3,0.1,0.5
		c0,0,0,0,0,0.1c0.1,0.1,0.1,0.2,0.2,0.3c0,0,0.1,0,0.1,0.1C2.7,76.9,2.8,77,3,77.1h0.1c0.1,0.1,0.2,0.1,0.4,0.2h0.1
		c0.2,0,0.3,0.1,0.5,0.1h72c1.1,0,2-0.9,2-2c0.1-0.1,0.1-0.1,0.1-0.2V27.4C78.2,26.4,77.2,25.4,76.2,25.4z M8.2,73.4l22-28.7
		l18.4,24.1l3.5,4.6H8.2z M57.2,73.4l-4.5-5.9l7.5-9.8l11.9,15.7C72.1,73.4,57.2,73.4,57.2,73.4z"/>
	<path d="M35.7,16.9l-15-15c-0.1-0.1-0.2-0.2-0.4-0.3c-0.1,0-0.1-0.1-0.2-0.1s-0.2-0.1-0.3-0.1c-0.1,0-0.2,0-0.2-0.1
		c-0.1,0-0.1-0.1-0.2-0.1c-0.2,0-0.3,0-0.5,0l0,0c-0.2,0-0.3,0-0.5,0c-0.1,0-0.1,0-0.2,0.1c-0.1,0-0.2,0-0.3,0.1
		c-0.1,0-0.2,0.1-0.2,0.1c-0.1,0-0.1,0.1-0.2,0.1c-0.1,0.1-0.3,0.2-0.4,0.3l-15,15c-1,1-1,2.6,0,3.5c1,1,2.6,1,3.5,0L16.4,9.7V21
		v1.9v16.8c0,1.4,1.1,2.5,2.5,2.5s2.5-1.1,2.5-2.5V23v-1.9V9.7l10.7,10.7c0.5,0.5,1.1,0.7,1.8,0.7c0.7,0,1.3-0.2,1.8-0.7
		C36.6,19.5,36.6,17.9,35.7,16.9z"/>
</g>
</svg>
