<?xml version="1.0" encoding="utf-8"?>
<!-- Generator: Adobe Illustrator 23.0.1, SVG Export Plug-In . SVG Version: 6.00 Build 0)  -->
<svg version="1.1" id="Layer_1" xmlns:xodm="http://www.corel.com/coreldraw/odm/2003"
	 xmlns="http://www.w3.org/2000/svg" xmlns:xlink="http://www.w3.org/1999/xlink" x="0px" y="0px" viewBox="0 0 113.3 114.4"
	 style="enable-background:new 0 0 113.3 114.4;" xml:space="preserve">
<style type="text/css">
	.st0{fill:#A3A3A3;}
</style>
<g>
	<path class="st0" d="M106,57.2c0-1.8,1.5-3.3,3.3-3.3c1.8,0,3.3,1.5,3.3,3.3c0,30.9-25,55.9-55.9,55.9S0.8,88.1,0.8,57.2
		s25-55.9,55.9-55.9c14.9,0,29,5.9,39.5,16.3V9.9c0-1.8,1.5-3.3,3.3-3.3c1.8,0,3.3,1.5,3.3,3.3v16.4c0,1.8-1.5,3.3-3.3,3.3H83
		c-1.8,0-3.3-1.5-3.3-3.3c0-1.8,1.5-3.3,3.3-3.3h9.3C83,13.4,70.2,7.9,56.7,7.9C29.4,7.9,7.3,30,7.3,57.2
		c0,27.3,22.1,49.3,49.3,49.3C83.9,106.5,106,84.5,106,57.2L106,57.2z"/>
	<path class="st0" d="M53.4,30.9c0-1.8,1.5-3.3,3.3-3.3c1.8,0,3.3,1.5,3.3,3.3l0,24.8l14.1,11.8c1.4,1.2,1.6,3.2,0.4,4.6
		c-1.2,1.4-3.2,1.6-4.6,0.4L54.6,59.7c-0.7-0.6-1.2-1.5-1.2-2.5L53.4,30.9L53.4,30.9z"/>
</g>
</svg>
