<?xml version="1.0" encoding="utf-8"?>
<!-- Generator: Adobe Illustrator 23.0.1, SVG Export Plug-In . SVG Version: 6.00 Build 0)  -->
<svg version="1.1" id="Layer_1" xmlns="http://www.w3.org/2000/svg" xmlns:xlink="http://www.w3.org/1999/xlink" x="0px" y="0px"
	 viewBox="0 0 49.3 65.5" style="enable-background:new 0 0 49.3 65.5;" xml:space="preserve">
<path d="M44.8,27h-2.6l0,0v-9.1c0-9.6-7.8-17.4-17.4-17.4S7.4,8.3,7.4,17.9V27H4.8c-2,0-3.7,1.7-3.7,3.7v2.2v25.6v2.2
	c0,2,1.7,3.7,3.7,3.7h20h20c2,0,3.7-1.7,3.7-3.7v-2.2V32.9v-2.2C48.5,28.7,46.8,27,44.8,27z M28.7,53.4h-7.9l1.4-6.7
	c-1.3-0.8-2.2-2.3-2.2-4c0-2.6,2.1-4.7,4.7-4.7s4.7,2.1,4.7,4.7c0,1.7-0.9,3.1-2.2,4L28.7,53.4z M24.8,27H13.6l0,0v-9.1
	c0-6.2,5-11.2,11.2-11.2S36,11.7,36,17.9V27H24.8z"/>
</svg>
