<?xml version="1.0" encoding="utf-8"?>
<!-- Generator: Adobe Illustrator 23.0.1, SVG Export Plug-In . SVG Version: 6.00 Build 0)  -->
<svg version="1.1" id="Layer_1" xmlns="http://www.w3.org/2000/svg" xmlns:xlink="http://www.w3.org/1999/xlink" x="0px" y="0px"
	 viewBox="0 0 20.8 21" style="enable-background:new 0 0 20.8 21;" xml:space="preserve">
<style type="text/css">
	.st0{fill:#9717E0;}
</style>
<title>plate, food, meal, dish, restaurant</title>
<path class="st0" d="M10.4,0.3c-5.5,0-10,4.5-10,10s4.5,10,10,10s10-4.5,10-10S15.9,0.3,10.4,0.3z M10.4,18.3c-4.4,0-8-3.6-8-8
	s3.6-8,8-8s8,3.6,8,8S14.8,18.3,10.4,18.3z"/>
<path class="st0" d="M10.4,4.3c-3.3,0-6,2.7-6,6s2.7,6,6,6s6-2.7,6-6S13.7,4.3,10.4,4.3z M10.4,14.3c-2.2,0-4-1.8-4-4s1.8-4,4-4
	s4,1.8,4,4S12.6,14.3,10.4,14.3z"/>
</svg>
