<?xml version="1.0" encoding="utf-8"?>
<!-- Generator: Adobe Illustrator 23.0.1, SVG Export Plug-In . SVG Version: 6.00 Build 0)  -->
<svg version="1.1" id="Layer_1" xmlns="http://www.w3.org/2000/svg" xmlns:xlink="http://www.w3.org/1999/xlink" x="0px" y="0px"
	 viewBox="0 0 361.7 318.2" style="enable-background:new 0 0 361.7 318.2;" xml:space="preserve">
<style type="text/css">
	.st0{fill:#9717E0;}
</style>
<g>
	<path class="st0" d="M49.1,39.7h133.5l15.6-22.5c6.1-8.7,14.7-13.9,25.1-13.9h33.8c9.5,0,18.2,4.3,24.3,12.1l19.9,24.3h10.4
		c25.1,0,45.9,20.8,45.9,45.9v182.9c0,25.1-20.8,45.9-45.9,45.9H49.1C24.8,314.5,4,293.7,4,268.5V85.6C4,60.5,24.8,39.7,49.1,39.7z
		 M186.9,57H49.1c-14.7,0-27.7,13-27.7,28.6v182.9c0,15.6,13,28.6,27.7,28.6h262.6c15.6,0,28.6-13,28.6-28.6V85.6
		c0-15.6-13-28.6-28.6-28.6H297c-2.6,0-5.2-0.9-6.9-3.5l-22.5-27.7c-2.6-3.5-6.1-5.2-10.4-5.2h-33.8c-4.3,0-7.8,1.7-10.4,6.1
		l-18.2,26C192.9,55.3,190.3,57,186.9,57z"/>
	<path class="st0" d="M180.8,87.4c49.4,0,89.3,39.9,89.3,90.1c0,49.4-39.9,89.3-89.3,89.3s-89.3-39.9-89.3-89.3
		C91.5,127.2,131.4,87.4,180.8,87.4z M180.8,104.7c-39.9,0-71.9,32.9-71.9,72.8s32.1,71.9,71.9,71.9s71.9-32.1,71.9-71.9
		S220.7,104.7,180.8,104.7z"/>
	<path class="st0" d="M63.8,94.3c-5.2,0-8.7-4.3-8.7-8.7c0-5.2,3.5-8.7,8.7-8.7h14.7c4.3,0,8.7,3.5,8.7,8.7c0,4.3-4.3,8.7-8.7,8.7
		H63.8z"/>
</g>
</svg>
