<?xml version="1.0" encoding="utf-8"?>
<!-- Generator: Adobe Illustrator 23.0.1, SVG Export Plug-In . SVG Version: 6.00 Build 0)  -->
<svg version="1.1" id="Layer_1" xmlns="http://www.w3.org/2000/svg" xmlns:xlink="http://www.w3.org/1999/xlink" x="0px" y="0px"
	 viewBox="0 0 20.9 20.6" style="enable-background:new 0 0 20.9 20.6;" xml:space="preserve">
<path d="M4.9,20.2c-2.5,0-4.5-2-4.5-4.5s2-4.5,4.5-4.5s4.5,2,4.5,4.5S7.4,20.2,4.9,20.2z M15.9,20.2c-2.5,0-4.5-2-4.5-4.5
	s2-4.5,4.5-4.5s4.5,2,4.5,4.5S18.4,20.2,15.9,20.2z M4.9,9.2c-2.5,0-4.5-2-4.5-4.5s2-4.5,4.5-4.5s4.5,2,4.5,4.5S7.4,9.2,4.9,9.2z
	 M15.9,9.2c-2.5,0-4.5-2-4.5-4.5s2-4.5,4.5-4.5s4.5,2,4.5,4.5S18.4,9.2,15.9,9.2z M15.9,7.2c1.4,0,2.5-1.1,2.5-2.5s-1.1-2.5-2.5-2.5
	s-2.5,1.1-2.5,2.5S14.5,7.2,15.9,7.2z M4.9,7.2c1.4,0,2.5-1.1,2.5-2.5S6.3,2.2,4.9,2.2S2.4,3.4,2.4,4.7S3.5,7.2,4.9,7.2z M15.9,18.2
	c1.4,0,2.5-1.1,2.5-2.5s-1.1-2.5-2.5-2.5s-2.5,1.1-2.5,2.5S14.5,18.2,15.9,18.2z M4.9,18.2c1.4,0,2.5-1.1,2.5-2.5s-1.1-2.5-2.5-2.5
	s-2.5,1.1-2.5,2.5S3.5,18.2,4.9,18.2z"/>
</svg>
