<?xml version="1.0" encoding="utf-8"?>
<!-- Generator: Adobe Illustrator 23.0.1, SVG Export Plug-In . SVG Version: 6.00 Build 0)  -->
<svg version="1.1" id="Layer_1" xmlns="http://www.w3.org/2000/svg" xmlns:xlink="http://www.w3.org/1999/xlink" x="0px" y="0px"
	 viewBox="0 0 41.1 42.1" style="enable-background:new 0 0 41.1 42.1;" xml:space="preserve">
<title>ecommerce, commerce, Discount, percent, percent tag, price tag, sale</title>
<path d="M38.3,15.8c-1.1-1-1.7-2.3-1.8-3.8c0.1-3.7-2.8-6.9-6.5-7c-0.2,0-0.3,0-0.5,0c-1.5-0.2-2.9-0.9-3.9-2
	c-1.4-1.3-3.2-2.1-5.1-2c-2-0.1-3.9,0.7-5.3,2c-0.9,1.1-2.2,1.8-3.7,2c-3.7-0.1-6.9,2.8-7,6.5c0,0.2,0,0.3,0,0.5
	c0,1.4-1.1,2.9-2.1,3.8c-1.3,1.4-2,3.3-1.9,5.2c-0.1,1.9,0.6,3.8,1.9,5.2c0.9,0.9,2.1,2.4,2.1,3.8c-0.1,3.7,2.8,6.9,6.5,7
	c0.2,0,0.3,0,0.5,0c1.4,0.2,2.8,0.9,3.7,2c1.4,1.3,3.4,2.1,5.3,2c1.9,0.1,3.7-0.7,5.1-2c1-1.1,2.4-1.8,3.9-2c3.7,0.1,6.9-2.8,7-6.5
	c0-0.2,0-0.3,0-0.5c0.1-1.5,0.8-2.8,1.8-3.8C41.2,23.3,41.2,18.7,38.3,15.8z M36.9,24.8c-1.5,1.4-2.3,3.2-2.4,5.2
	c0.1,2.6-1.9,4.9-4.5,5c-0.2,0-0.3,0-0.5,0c-2,0.2-3.9,1.1-5.3,2.5c-1,1-2.3,1.5-3.7,1.5c-1.4,0-2.8-0.5-3.9-1.5
	c-1.3-1.5-3.1-2.4-5.1-2.5c-2.6,0.1-4.9-1.9-5-4.5c0-0.2,0-0.3,0-0.5c0-2.1-1.4-4-2.7-5.2c-1-1-1.4-2.4-1.3-3.8
	c-0.1-1.4,0.4-2.8,1.3-3.8C5.1,16,6.5,14.1,6.5,12C6.4,9.4,8.4,7.1,11,7c0.2,0,0.3,0,0.5,0c2-0.1,3.8-1,5.1-2.5
	c1.1-1,2.5-1.5,3.9-1.5c1.4,0,2.7,0.5,3.7,1.5c1.4,1.5,3.3,2.4,5.3,2.5c2.6-0.1,4.9,1.9,5,4.5c0,0.2,0,0.3,0,0.5
	c0.1,2,1,3.8,2.4,5.2C39,19.3,39,22.7,36.9,24.8z"/>
<path d="M28.2,13.3c-0.4-0.4-1-0.4-1.4,0l-14,14c-0.4,0.4-0.5,1-0.1,1.4c0.4,0.4,1,0.5,1.4,0.1c0,0,0.1-0.1,0.1-0.1l14-14
	C28.6,14.3,28.6,13.7,28.2,13.3z"/>
<path d="M15.5,20c2.2,0,4-1.8,4-4s-1.8-4-4-4s-4,1.8-4,4S13.3,20,15.5,20z M15.5,14c1.1,0,2,0.9,2,2s-0.9,2-2,2s-2-0.9-2-2
	S14.4,14,15.5,14z"/>
<path d="M25.5,22c-2.2,0-4,1.8-4,4s1.8,4,4,4s4-1.8,4-4S27.7,22,25.5,22z M25.5,28c-1.1,0-2-0.9-2-2s0.9-2,2-2s2,0.9,2,2
	S26.6,28,25.5,28z"/>
</svg>
