<?xml version="1.0" encoding="utf-8"?>
<!-- Generator: Adobe Illustrator 23.0.1, SVG Export Plug-In . SVG Version: 6.00 Build 0)  -->
<svg version="1.1" id="Layer_1" xmlns="http://www.w3.org/2000/svg" xmlns:xlink="http://www.w3.org/1999/xlink" x="0px" y="0px"
	 viewBox="0 0 100 99.1" style="enable-background:new 0 0 100 99.1;" xml:space="preserve">
<style type="text/css">
	.st0{fill:#FFFFFF;}
</style>
<g>
	<g>
		<path class="st0" d="M5273.1,2400.1v-2c0-2.8-5-4-9.7-4s-9.7,1.3-9.7,4v2c0,1.8,0.7,3.6,2,4.9l5,4.9c0.3,0.3,0.4,0.6,0.4,1v6.4
			c0,0.4,0.2,0.7,0.6,0.8l2.9,0.9c0.5,0.1,1-0.2,1-0.8v-7.2c0-0.4,0.2-0.7,0.4-1l5.1-5C5272.4,2403.7,5273.1,2401.9,5273.1,2400.1z
			 M5263.4,2400c-4.8,0-7.4-1.3-7.5-1.8l0,0c0.1-0.5,2.7-1.8,7.5-1.8s7.3,1.3,7.5,1.8C5270.7,2398.7,5268.2,2400,5263.4,2400z"/>
		<path class="st0" d="M5268.4,2410.3c-0.6,0-1,0.4-1,1s0.4,1,1,1h4.3c0.6,0,1-0.4,1-1s-0.4-1-1-1H5268.4z"/>
		<path class="st0" d="M5272.7,2413.7h-4.3c-0.6,0-1,0.4-1,1s0.4,1,1,1h4.3c0.6,0,1-0.4,1-1
			C5273.7,2414.1,5273.3,2413.7,5272.7,2413.7z"/>
		<path class="st0" d="M5272.7,2417h-4.3c-0.6,0-1,0.4-1,1s0.4,1,1,1h4.3c0.6,0,1-0.4,1-1C5273.7,2417.5,5273.3,2417,5272.7,2417z"
			/>
	</g>
	<g>
		<path class="st0" d="M92.5,37.7c2.8,0,5-2.2,5-5V10.4c0-2.8-2.2-5-5-5s-5,2.2-5,5v10.3l-4.2-4.2c-9-8.9-20.8-13.9-33.5-13.9
			S25.2,7.5,16.3,16.5C-2.1,35-2.1,65,16.4,83.5c9.2,9.2,21.4,13.9,33.5,13.9s24.3-4.6,33.5-13.9c7.3-7.3,12-16.7,13.4-26.9
			c0.4-2.7-1.5-5.2-4.3-5.6c-2.7-0.4-5.2,1.5-5.6,4.3c-1.1,8.1-4.8,15.4-10.6,21.2C61.7,91,38,91,23.4,76.5
			c-14.6-14.6-14.6-38.3,0-52.9c7.1-7.1,16.5-11,26.4-11c10,0,19.4,3.9,26.4,11l4.2,4.2H70.2c-2.8,0-5,2.2-5,5s2.2,5,5,5L92.5,37.7
			L92.5,37.7z"/>
		<path class="st0" d="M49.6,23.7c-2.8,0-5,2.2-5,5V50c0,1.7,0.8,3.2,2.2,4.1l12.8,8.6c0.9,0.6,1.8,0.9,2.8,0.9
			c1.6,0,3.2-0.8,4.1-2.2c1.5-2.3,0.9-5.4-1.3-6.9l-10.6-7.1V28.7C54.6,26,52.4,23.7,49.6,23.7z"/>
	</g>
</g>
</svg>
