<?xml version="1.0" encoding="utf-8"?>
<!-- Generator: Adobe Illustrator 23.0.1, SVG Export Plug-In . SVG Version: 6.00 Build 0)  -->
<svg version="1.1" id="Layer_1" xmlns="http://www.w3.org/2000/svg" xmlns:xlink="http://www.w3.org/1999/xlink" x="0px" y="0px"
	 viewBox="0 0 62.7 64" style="enable-background:new 0 0 62.7 64;" xml:space="preserve">
<path d="M59.6,3.7c-1-0.6-2.2-1-3.8-1c-2.5,0-46,0-48.9,0c-1.7,0-2.9,0.2-4.1,1L1.6,5.3L1.3,6.8c0,1.3,0.3,2.6,1.2,3.5
	C5.2,13,16.1,24,21.4,29.3l0.1,0.3l0.1,0.3c0,3,0,6.1,0,9.1c0,2.7,0,5.4,0,8.1l0,0v0.1c0,1.6,0.7,3.3,1.8,4.3c3.1,3,6.2,6.1,9.3,9.2
	l0.2,0.2l1.1,0.9l0.4,0.3c0.6,0.3,1.3,0.5,2.1,0.5c1.3,0,2.6-0.7,3.4-1.7c0.8-1,1.2-2.3,1.2-3.6c0-4.2,0-8.3,0-12.5
	c0-4.9,0-9.8,0-14.7v0l0.3-0.9c5.3-5.2,18.3-18.4,18.7-18.9l0.6-1L61.1,7l0.1-0.5C61.2,5.3,60.5,4.3,59.6,3.7z M38.3,26
	c-1.1,1-1.7,2.6-1.6,4l0,0l0,0c0,4.9,0,9.8,0,14.7c0,4.2,0,8.3,0,12.5l-0.2,0.9l0,0l0,0l-0.7-0.6c-3.1-3-6.1-6.1-9.2-9.2
	C26,47.9,26,47.8,26,47.1v0c0-2.7,0-5.4,0-8.1c0-3.1,0-6.1,0-9.2c-0.1-1.4-0.5-2.5-1.5-3.5C19.3,21,8.5,10.1,5.7,7.3l0-0.2l1.1-0.1
	c2.9,0,46.4,0,48.9,0c0.4,0,0.6,0,0.9,0.1l-0.1,0.5C54.5,9.7,43.1,21.2,38.3,26z"/>
</svg>
