<?xml version="1.0" encoding="utf-8"?>
<!-- Generator: Adobe Illustrator 23.0.1, SVG Export Plug-In . SVG Version: 6.00 Build 0)  -->
<svg version="1.1" id="Layer_1" xmlns="http://www.w3.org/2000/svg" xmlns:xlink="http://www.w3.org/1999/xlink" x="0px" y="0px"
	 viewBox="0 0 50 51.3" style="enable-background:new 0 0 50 51.3;" xml:space="preserve">
<style type="text/css">
	.st0{fill-rule:evenodd;clip-rule:evenodd;fill:#A3A3A3;stroke:#A3A3A3;stroke-width:0.75;stroke-miterlimit:10;}
</style>
<g>
	<path class="st0" d="M33.7,25h9.1c-4.7,7.1-12,15.4-16.1,19.9l-1.4,1.5L24,44.8C20,40.4,12.6,32.1,7.9,25h9.6l3.4-6.3l7.4,16.2
		L33.7,25z M47.8,7.2c-3.6-6.6-11.7-8.3-18-4.6c-1.7,1-3.2,2.2-4.4,3.7c-1.3-1.5-2.8-2.8-4.4-3.7c-6.3-3.7-14.4-2-18,4.6
		c-2.4,4.5-2.3,10.2,0,14.7c3.9,8.1,12.9,18,19,24.8c1.2,1.3,2.3,2.6,3.4,3.9c1.1-1.3,2.3-2.6,3.4-3.9c4.9-5.5,14.9-16.6,19-24.7
		C50,17.4,50.2,11.7,47.8,7.2z M44.5,22.2H32l-3.5,6.4l-7.4-16.2l-5.3,9.7H6.2c-0.3-0.5-0.6-1.1-0.9-1.6c-1.8-3.7-2-8.4,0-12.1
		C8.2,3.2,14.5,2.1,19.5,5c2.8,1.6,4.1,3.6,5.8,6.1c1.7-2.5,3-4.5,5.8-6.1c5-2.9,11.3-1.7,14.2,3.5c2,3.7,1.8,8.5,0,12.2L44.5,22.2z
		"/>
</g>
</svg>
