<?xml version="1.0" encoding="utf-8"?>
<!-- Generator: Adobe Illustrator 23.0.1, SVG Export Plug-In . SVG Version: 6.00 Build 0)  -->
<svg version="1.1" id="Layer_1" xmlns="http://www.w3.org/2000/svg" xmlns:xlink="http://www.w3.org/1999/xlink" x="0px" y="0px"
	 viewBox="0 0 81.9 80.5" style="enable-background:new 0 0 81.9 80.5;" xml:space="preserve">
<title>53 all</title>
<path d="M54.8,23.4h-30c-1.1,0-2,0.9-2,2s0.9,2,2,2h30c1.1,0,2-0.9,2-2S55.9,23.4,54.8,23.4z"/>
<path d="M54.8,37.4h-30c-1.1,0-2,0.9-2,2s0.9,2,2,2h30c1.1,0,2-0.9,2-2S55.9,37.4,54.8,37.4z"/>
<path d="M79.6,13.8c0-6.6-5.4-12-12-12h-54c-6.6,0-12,5.4-12,12v36c0,6.6,5.4,12,12,12h19.2l16.7,16.5c0.6,0.6,1.5,1,2.4,1
	c0.5,0,0.9-0.1,1.3-0.3c1-0.5,1.5-1.6,1.4-2.6l-0.4-14.5h13.4c6.6,0,12-5.4,12-12V13.8z M75.6,49.8c0,4.4-3.6,8-8,8H52.1
	c-1.1,0-2,0.9-2,2c0,0,0,0,0,0.1l0.4,13.8L35,58.4c-0.4-0.4-0.9-0.6-1.4-0.6h-20c-4.4,0-8-3.6-8-8v-36c0-4.4,3.6-8,8-8h54
	c4.4,0,8,3.6,8,8V49.8z"/>
</svg>
