<?xml version="1.0" encoding="utf-8"?>
<!-- Generator: Adobe Illustrator 23.0.1, SVG Export Plug-In . SVG Version: 6.00 Build 0)  -->
<svg version="1.1" id="Layer_1" xmlns="http://www.w3.org/2000/svg" xmlns:xlink="http://www.w3.org/1999/xlink" x="0px" y="0px"
	 viewBox="0 0 63.8 64.1" style="enable-background:new 0 0 63.8 64.1;" xml:space="preserve">
<g>
	<path d="M62.1,57L49.8,44.8c3.9-4.9,5.8-10.9,5.8-16.8c0-7-2.7-13.9-8-19.2c-5.3-5.3-12.3-8-19.2-8c-7,0-13.9,2.7-19.2,8
		C3.9,14,1.3,21,1.3,28s2.7,13.9,8,19.2c5.3,5.3,12.3,8,19.2,8c5.9,0,11.9-1.9,16.8-5.8l12.3,12.3c0.6,0.6,1.4,0.9,2.1,0.9
		c0.8,0,1.5-0.3,2.1-0.9l0.3-0.3c0.6-0.6,0.9-1.4,0.9-2.1C63,58.4,62.7,57.6,62.1,57z M44.1,43.6c-4.3,4.3-10,6.5-15.7,6.5
		s-11.3-2.2-15.7-6.5S6.3,33.6,6.3,28s2.2-11.3,6.5-15.7s10-6.5,15.7-6.5c5.7,0,11.3,2.2,15.7,6.5s6.5,10,6.5,15.7
		C50.6,33.6,48.4,39.3,44.1,43.6z"/>
</g>
</svg>
