<?xml version="1.0" encoding="utf-8"?>
<!-- Generator: Adobe Illustrator 23.0.1, SVG Export Plug-In . SVG Version: 6.00 Build 0)  -->
<svg version="1.1" id="Layer_1" xmlns="http://www.w3.org/2000/svg" xmlns:xlink="http://www.w3.org/1999/xlink" x="0px" y="0px"
	 viewBox="0 0 52.9 58.8" style="enable-background:new 0 0 52.9 58.8;" xml:space="preserve">
<title>Bell v2.3</title>
<desc>Created with Sketch.</desc>
<g>
	<g>
		<path d="M35.1,49.6c-0.5,4.2-4.1,7.5-8.4,7.5s-7.9-3.3-8.4-7.5H6.7c-3,0-5.5-2.5-5.5-5.5c0-3,2.5-5.5,5.5-5.5
			c0.3,0,0.5-0.2,0.5-0.5v-12c0-8.6,5.5-16,13.5-18.6V6.6c0-3.3,2.7-6,6-6c3.3,0,6,2.7,6,6v0.9c8,2.6,13.5,10,13.5,18.6v12
			c0,0.3,0.2,0.5,0.5,0.5c3,0,5.5,2.5,5.5,5.5c0,3-2.5,5.5-5.5,5.5H35.1z M32.1,49.6H21.3c0.5,2.6,2.7,4.5,5.4,4.5
			S31.6,52.2,32.1,49.6z M22.5,10.2c-7.2,1.9-12.4,8.4-12.4,16v12c0,1.9-1.6,3.5-3.5,3.5c-1.4,0-2.5,1.1-2.5,2.5
			c0,1.4,1.1,2.5,2.5,2.5h40c1.4,0,2.5-1.1,2.5-2.5c0-1.4-1.1-2.5-2.5-2.5c-1.9,0-3.5-1.6-3.5-3.5v-12c0-7.6-5.1-14.1-12.4-16
			l-1.1-0.3V6.6c0-1.7-1.3-3-3-3c-1.7,0-3,1.3-3,3v3.2L22.5,10.2z"/>
	</g>
</g>
</svg>
