<?xml version="1.0" encoding="utf-8"?>
<!-- Generator: Adobe Illustrator 23.0.1, SVG Export Plug-In . SVG Version: 6.00 Build 0)  -->
<svg version="1.1" id="Layer_1" xmlns="http://www.w3.org/2000/svg" xmlns:xlink="http://www.w3.org/1999/xlink" x="0px" y="0px"
	 viewBox="0 0 92.4 58.5" style="enable-background:new 0 0 92.4 58.5;" xml:space="preserve">
<style type="text/css">
	.st0{fill:#9717E0;}
</style>
<path class="st0" d="M88.9,20.8h-4.1v-5.1c0-3.8-3.1-6.9-6.9-6.9c-0.8,0-1.6,0.2-2.3,0.4c-0.1-4.7-4-8.5-8.7-8.5
	c-4.8,0-8.7,3.9-8.7,8.7v11.2H34.3V9.6c0-4.8-3.9-8.7-8.7-8.7c-4.7,0-8.6,3.8-8.7,8.5c-0.7-0.3-1.5-0.4-2.3-0.4
	c-3.8,0-6.9,3.1-6.9,6.9v5.1H3.5c-1.3,0-2.3,1-2.3,2.3v11c0,1.3,1,2.3,2.3,2.3h4.1v5.1c0,3.8,3.1,6.9,6.9,6.9c0.8,0,1.6-0.2,2.3-0.4
	c0.1,4.7,4,8.5,8.7,8.5c4.8,0,8.7-3.9,8.7-8.7V36.4h23.9v11.3c0,4.8,3.9,8.7,8.7,8.7c4.7,0,8.6-3.8,8.7-8.5c0.7,0.3,1.5,0.4,2.3,0.4
	c3.8,0,6.9-3.1,6.9-6.9v-5.1h4.1c1.3,0,2.3-1,2.3-2.3v-11C91.2,21.9,90.2,20.8,88.9,20.8z M80.2,36.4v5.1c0,1.3-1,2.3-2.3,2.3
	s-2.3-1-2.3-2.3v-5.1v-4.6v-6.4v-4.6v-5.1c0-1.3,1-2.3,2.3-2.3s2.3,1,2.3,2.3v5.1v4.6v6.4V36.4z M71,41.5v6.2c0,2.3-1.9,4.1-4.1,4.1
	c-2.3,0-4.1-1.9-4.1-4.1V36.4v-4.6v-6.4v-4.6V9.6c0-2.3,1.9-4.1,4.1-4.1c2.3,0,4.1,1.9,4.1,4.1v6.2v5.1v4.6v6.4v4.6V41.5z
	 M29.7,36.4v11.3c0,2.3-1.9,4.1-4.1,4.1s-4.1-1.9-4.1-4.1v-6.2v-5.1v-4.6v-6.4v-4.6v-5.1V9.6c0-2.3,1.9-4.1,4.1-4.1s4.1,1.9,4.1,4.1
	v11.2v4.6v6.4V36.4z M12.2,41.5v-5.1v-4.6v-6.4v-4.6v-5.1c0-1.3,1-2.3,2.3-2.3c1.3,0,2.3,1,2.3,2.3v5.1v4.6v6.4v4.6v5.1
	c0,1.3-1,2.3-2.3,2.3C13.3,43.8,12.2,42.8,12.2,41.5z M5.8,31.9v-6.4h1.8v6.4H5.8z M34.3,31.9v-6.4h23.9v6.4H34.3z M86.6,31.9h-1.8
	v-6.4h1.8V31.9z"/>
</svg>
