<?xml version="1.0" encoding="utf-8"?>
<!-- Generator: Adobe Illustrator 23.0.1, SVG Export Plug-In . SVG Version: 6.00 Build 0)  -->
<svg version="1.1" id="Layer_1" xmlns="http://www.w3.org/2000/svg" xmlns:xlink="http://www.w3.org/1999/xlink" x="0px" y="0px"
	 viewBox="0 0 512 466" style="enable-background:new 0 0 512 466;" xml:space="preserve">
<style type="text/css">
	.st0{fill:#9717E0;}
</style>
<g>
	<path class="st0" d="M485.7,336h-9.4c-4-51-26.5-98.2-64.3-134.6c-37.7-36.3-86.6-57.8-139.1-61.7v-8.1
		c25.2-7.6,43.7-31.5,43.7-59.8c0-34.4-27.2-62.3-60.7-62.3s-60.7,28-60.7,62.3c0,28.3,18.5,52.2,43.7,59.8v8.1
		c-52.5,3.8-101.4,25.4-139.1,61.7C62.1,237.8,39.6,285,35.6,336h-9.4C16.9,336,9,343.6,9,353v76.5c0,9.4,7.9,16.5,17.3,16.5h459.5
		c9.4,0,17.3-7.1,17.3-16.5V353C503,343.6,495.1,336,485.7,336z M229.3,71.8c0-15.6,12-28.3,26.7-28.3c14.7,0,26.7,12.7,26.7,28.3
		s-12,28.3-26.7,28.3S229.3,87.4,229.3,71.8z M256,173.2c97.3,0,177.5,71.8,186.2,162.8H69.8C78.5,245,158.7,173.2,256,173.2z
		 M469,412H43v-42h426V412z"/>
</g>
</svg>
