<?xml version="1.0" encoding="utf-8"?>
<!-- Generator: Adobe Illustrator 23.0.1, SVG Export Plug-In . SVG Version: 6.00 Build 0)  -->
<svg version="1.1" id="Layer_1" xmlns="http://www.w3.org/2000/svg" xmlns:xlink="http://www.w3.org/1999/xlink" x="0px" y="0px"
	 viewBox="0 0 274 314.5" style="enable-background:new 0 0 274 314.5;" xml:space="preserve">
<style type="text/css">
	.st0{fill:#9717E0;}
</style>
<g>
	<path class="st0" d="M55,219.4c11.6,0,22.2,3.9,31.8,9.6V86.4c0-3.9,1.9-7.7,5.8-8.7l163-71.4c6.8-2.9,13.5,1.9,13.5,8.7v214.1
		c0,27-25.1,45.3-50.1,45.3c-26,0-51.1-18.3-51.1-45.3s25.1-45.3,51.1-45.3c10.6,0,22.2,3.9,30.9,9.6c0-154.3,0-40.5,0-163.9
		L106.1,93.1c0,40.5,0,90.7,0,171.7c0,27-25.1,45.3-51.1,45.3c-25.1,0-50.1-18.3-50.1-45.3C4.9,237.8,30,219.4,55,219.4z
		 M249.8,229.1c0-16.4-16.4-26-30.9-26c-15.4,0-31.8,9.6-31.8,26s16.4,26,31.8,26C233.4,255.1,249.8,245.5,249.8,229.1z M55,238.7
		c-14.5,0-30.9,9.6-30.9,26c0,16.4,16.4,26,30.9,26c15.4,0,31.8-9.6,31.8-26C86.9,248.4,70.5,238.7,55,238.7z"/>
</g>
</svg>
