<?xml version="1.0" encoding="utf-8"?>
<!-- Generator: Adobe Illustrator 23.0.1, SVG Export Plug-In . SVG Version: 6.00 Build 0)  -->
<svg version="1.1" id="Layer_1" xmlns="http://www.w3.org/2000/svg" xmlns:xlink="http://www.w3.org/1999/xlink" x="0px" y="0px"
	 viewBox="0 0 83.8 84.5" style="enable-background:new 0 0 83.8 84.5;" xml:space="preserve">
<style type="text/css">
	.st0{fill:#9717E0;}
</style>
<g>
	<path class="st0" d="M45,2.2l-2.3-0.3c0,0.1,0,0.2,0,0.2C32,1.8,21.2,5.8,13.1,13.9c-15.8,15.8-15.8,41.5,0,57.3
		c7.9,7.9,18.3,11.9,28.7,11.9s20.8-4,28.7-11.9c15.8-15.8,15.8-41.5,0-57.3C63.3,6.9,54.3,3,45,2.2z M46.3,6.4
		c7.1,0.9,14.1,3.9,19.7,9L53.9,27.5C48.8,21.7,46.1,14.1,46.3,6.4z M68.9,18.2c5.1,5.7,8.1,12.6,9,19.7c-7.8,0.2-15.3-2.5-21.1-7.6
		L68.9,18.2z M42.3,6.1C42,15,45.2,23.7,51.1,30.4l-9.4,9.4L17.3,15.4c6.9-6.2,15.6-9.3,24.4-9.3C41.9,6.1,42.1,6.1,42.3,6.1z
		 M14.5,18.2l24.4,24.4L29.5,52c-6.7-5.9-15.3-9.1-24.3-8.8C5.1,34.3,8.1,25.3,14.5,18.2z M37.1,78.8c-7.1-0.9-14.1-3.9-19.8-9
		l12.1-12.1C34.6,63.5,37.3,71,37.1,78.8z M5.5,47.2c7.8-0.2,15.3,2.5,21.1,7.6L14.5,67C9.4,61.3,6.4,54.4,5.5,47.2z M41.1,79.1
		c0.3-8.9-2.9-17.6-8.8-24.3l9.4-9.4l24.4,24.4C59,76.2,50,79.2,41.1,79.1z M68.9,67L44.5,42.6l9.4-9.4C60.3,38.9,68.4,42,77,42
		c0.4,0,0.8,0,1.2,0C78.4,50.9,75.3,59.9,68.9,67z"/>
</g>
</svg>
