<?xml version="1.0" encoding="utf-8"?>
<!-- Generator: Adobe Illustrator 23.0.1, SVG Export Plug-In . SVG Version: 6.00 Build 0)  -->
<svg version="1.1" id="Layer_1" xmlns="http://www.w3.org/2000/svg" xmlns:xlink="http://www.w3.org/1999/xlink" x="0px" y="0px"
	 viewBox="0 0 78 75.9" style="enable-background:new 0 0 78 75.9;" xml:space="preserve">
<g>
	<path d="M38.5,46.6c-12.5,0-22.7-10.2-22.7-22.7S26,1.2,38.5,1.2s22.7,10.2,22.7,22.7S51,46.6,38.5,46.6z M38.5,5.2
		c-10.3,0-18.7,8.4-18.7,18.7s8.4,18.7,18.7,18.7s18.7-8.4,18.7-18.7S48.8,5.2,38.5,5.2z"/>
</g>
<g>
	<path d="M74,74.7H3c-1.1,0-2-0.9-2-2C1,59.8,7.5,48,18.5,41c0.8-0.5,1.8-0.4,2.5,0.3c4.7,4.7,10.9,7.4,17.6,7.4
		c6.6,0,12.9-2.6,17.6-7.4c0.7-0.7,1.7-0.8,2.5-0.3c10.9,7,17.5,18.8,17.5,31.7C76,73.8,75.1,74.7,74,74.7z M5,70.7h67
		c-0.6-10.2-5.8-19.5-14.3-25.4c-5.3,4.8-12.1,7.4-19.2,7.4c-7.2,0-13.9-2.6-19.2-7.4C10.8,51.1,5.6,60.5,5,70.7z"/>
</g>
</svg>
